<?xml version="1.0" encoding="UTF-8"?>
<svg enable-background="new 0 0 255.1 255.1" version="1.1" viewBox="0 0 255.1 255.1" width="1em" height="1em" xml:space="preserve" xmlns="http://www.w3.org/2000/svg">
<style type="text/css">
	.st0{fill:#83C300;}
	.st1{fill:#FEFEFE;}
</style>
<circle class="st0" cx="127.6" cy="127.6" r="121.6"/>
	<path class="st1" d="m132.65 141.78c-0.413-10.695 2.545-21.791 6.292-32.75 0.397-1.161 1.129-1.621 2.191-1.826 2.351-0.455 4.634-1.156 6.89-1.947 9.716-3.409 17.863-9.167 24.866-16.634 0.35-0.374 0.691-0.756 1.039-1.132 1.533-1.658 1.554-1.679 3.125-0.117 8.585 8.54 14.684 18.59 18.053 30.226 9.477 32.739-5.663 67.258-36.138 82.515-0.838 0.42-1.699 0.797-2.56 1.171-1.95 0.846-1.93 0.821-3.391-0.859-11.1-12.757-17.323-27.633-19.428-44.344-0.556-4.413-0.933-8.824-0.939-14.303z"/>
	<path class="st1" d="m122.7 141.27c-0.379 14.433-2.405 27.001-7.548 38.937-3.239 7.517-7.867 14.151-13.105 20.384-1.32 1.571-1.373 1.571-3.22 0.723-16.003-7.345-27.766-18.99-35.185-34.951-4.916-10.577-6.969-21.765-6.199-33.381 1.17-17.657 8.077-32.797 20.528-45.391 0.12-0.121 0.241-0.242 0.366-0.359 1.441-1.358 1.479-1.391 2.78 0.063 3.888 4.348 8.202 8.205 13.056 11.448 5.88 3.928 12.253 6.762 19.157 8.268 1.843 0.402 2.732 1.236 3.291 2.981 2.321 7.238 4.608 14.482 5.401 22.083 0.372 3.561 0.532 7.144 0.678 9.195z"/>
	<path class="st1" d="m127.67 95.452c-14.599 0.01-26.36-5.701-35.975-16.144-1.369-1.486-1.354-1.566 0.368-2.597 3.67-2.195 7.535-3.984 11.552-5.445 0.801-0.291 1.621-0.534 2.413-0.848 1.246-0.494 1.285-0.649 0.517-1.84-0.277-0.429-0.605-0.825-0.91-1.236-3.252-4.385-6.507-8.767-9.751-13.158-0.506-0.685-1.046-1.365-1.418-2.123-1.052-2.141-0.391-4.587 1.512-5.899 1.863-1.284 4.146-1.094 5.835 0.568 0.664 0.653 1.216 1.426 1.775 2.178 4.225 5.681 8.485 11.337 12.624 17.08 0.988 1.371 2.006 1.805 3.647 1.576 5.176-0.724 10.379-0.736 15.554 5e-3 1.669 0.239 2.658-0.274 3.632-1.62 4.251-5.873 8.609-11.668 12.936-17.486 0.457-0.614 0.907-1.251 1.457-1.777 1.754-1.677 4.198-1.793 6.059-0.345 1.776 1.382 2.301 3.666 1.255 5.742-0.342 0.679-0.815 1.298-1.27 1.914-3.245 4.39-6.501 8.772-9.753 13.157-0.305 0.411-0.621 0.815-0.91 1.237-1.014 1.483-1.006 1.519 0.577 2.108 0.719 0.268 1.454 0.491 2.176 0.751 4.021 1.452 7.879 3.256 11.558 5.434 1.8 1.065 1.815 1.117 0.488 2.559-9.746 10.589-21.665 16.332-35.948 16.209z"/>
</svg>
