<svg xmlns="http://www.w3.org/2000/svg" viewBox="0 0 222.7 222.7" width="1em" height="1em"><circle cx="111.35" cy="111.35" r="111.35" fill="#e5e5e5"/><path d="M115.15,37.52l12.69,28.79a14,14,0,0,0,14.27,8.24l31.28-3.41a4.15,4.15,0,0,1,3.79,6.59L158.6,103.11a14,14,0,0,0,0,16.48L177.18,145a4.15,4.15,0,0,1-3.79,6.58l-31.28-3.4a14,14,0,0,0-14.27,8.24l-12.69,28.79a4.15,4.15,0,0,1-7.6,0L94.86,156.39a14,14,0,0,0-14.27-8.24l-31.28,3.4a4.15,4.15,0,0,1-3.8-6.58L64.1,119.59a14,14,0,0,0,0-16.48L45.51,77.73a4.16,4.16,0,0,1,3.8-6.59l31.28,3.41a14,14,0,0,0,14.27-8.24l12.69-28.79A4.15,4.15,0,0,1,115.15,37.52Z" fill="#1e1e1e"/></svg>