<svg xmlns="http://www.w3.org/2000/svg" xmlns:xlink="http://www.w3.org/1999/xlink" viewBox="0 0 1235.16 470.39"><defs><clipPath id="a" transform="translate(-50.55 -27.24)"><rect width="1004.12" height="436.58" fill="none"/></clipPath><clipPath id="b" transform="translate(-50.55 -27.24)"><polygon points="811.25 96.53 853.85 366.23 147.08 447.55 3.08 114.97 621.1 10.96 811.25 96.53" fill="none"/></clipPath><linearGradient id="c" x1="514.74" y1="-3742.01" x2="476.53" y2="-3670.78" gradientTransform="matrix(1, 0, 0, -1, -464, -3537.8)" gradientUnits="userSpaceOnUse"><stop offset="0" stop-color="#0070b6"/><stop offset="1" stop-color="#1d2c5e"/></linearGradient><linearGradient id="d" x1="980.87" y1="-3596.5" x2="1029.38" y2="-3544.52" xlink:href="#c"/><linearGradient id="e" x1="769.23" y1="-3683.16" x2="763.44" y2="-3634.56" xlink:href="#c"/><linearGradient id="f" x1="1299.15" y1="-3673.81" x2="1296.84" y2="-3629.94" gradientTransform="matrix(1, 0, 0, -1, -464, -3537.8)" gradientUnits="userSpaceOnUse"><stop offset="0" stop-color="#125d9e"/><stop offset="1" stop-color="#1d2c5e"/></linearGradient><linearGradient id="g" x1="1137.24" y1="-3610.58" x2="1086.33" y2="-3691.57" xlink:href="#f"/><linearGradient id="h" x1="686.7" y1="-3740.48" x2="721.41" y2="-3808.74" gradientTransform="matrix(1, 0, 0, -1, -413.45, -3510.56)" gradientUnits="userSpaceOnUse"><stop offset="0" stop-color="#105fa1"/><stop offset="1" stop-color="#1d2c5e"/></linearGradient><linearGradient id="i" x1="555.73" y1="-3717.18" x2="595.9" y2="-3810.31" gradientTransform="matrix(1, 0, 0, -1, -464, -3537.8)" xlink:href="#h"/><linearGradient id="j" x1="888.04" y1="2247.9" x2="948.82" y2="2247.9" gradientTransform="translate(-569.45 -2006.69)" gradientUnits="userSpaceOnUse"><stop offset="0" stop-color="#3c5aa6"/><stop offset="0.93" stop-color="#2b73b9"/><stop offset="1" stop-color="#2a75bb"/></linearGradient><linearGradient id="k" x1="634.22" y1="2216.61" x2="1648.09" y2="2216.61" xlink:href="#j"/><clipPath id="l" transform="translate(-50.55 -27.24)"><path d="M882.76,181.24c-20.35-4.66-80.21-2.65-93.12,53.75s37.23,78.54,59.31,83.6,59.93,1.61,96.26-26.2l-28.48-40.48,26-16.53C934.59,210.2,916.7,189,882.76,181.24Z" fill="none"/></clipPath><linearGradient id="m" x1="848.61" y1="-3704.21" x2="815.01" y2="-3641.59" gradientTransform="matrix(0.97, 0.22, 0.22, -0.97, 382.62, -3644.97)" xlink:href="#c"/><linearGradient id="n" x1="1258.43" y1="-3576.28" x2="1301.08" y2="-3530.58" gradientTransform="matrix(0.97, 0.22, 0.22, -0.97, 382.62, -3644.97)" xlink:href="#c"/><linearGradient id="o" x1="1072.35" y1="-3652.47" x2="1067.27" y2="-3609.74" gradientTransform="matrix(0.97, 0.22, 0.22, -0.97, 382.62, -3644.97)" xlink:href="#c"/><linearGradient id="p" x1="1538.25" y1="-3644.24" x2="1536.22" y2="-3605.68" gradientTransform="matrix(0.97, 0.22, 0.22, -0.97, 382.62, -3644.97)" xlink:href="#f"/><linearGradient id="q" x1="1395.91" y1="-3588.65" x2="1351.15" y2="-3659.86" gradientTransform="matrix(0.97, 0.22, 0.22, -0.97, 382.62, -3644.97)" xlink:href="#f"/><linearGradient id="r" x1="999.79" y1="-3702.86" x2="1030.31" y2="-3762.88" gradientTransform="matrix(0.97, 0.22, 0.22, -0.97, 433.18, -3617.73)" xlink:href="#h"/><linearGradient id="s" x1="884.64" y1="-3682.38" x2="919.96" y2="-3764.26" gradientTransform="matrix(0.97, 0.22, 0.22, -0.97, 382.62, -3644.97)" xlink:href="#h"/><linearGradient id="t" x1="1195.66" y1="2208.92" x2="1249.09" y2="2208.92" gradientTransform="translate(-54.6 -2186.63) rotate(12.9)" xlink:href="#j"/><linearGradient id="u" x1="403.05" y1="174.73" x2="1294.44" y2="174.73" gradientTransform="translate(52.54 -103.46) rotate(12.9)" xlink:href="#j"/></defs><g clip-path="url(#a)"><g clip-path="url(#b)"><polygon points="0 139.47 45.88 216.93 64.2 199.46 14.26 124.99 0 139.47" fill="url(#c)"/><polygon points="681.24 78.6 679.47 88.81 701.41 81.73 698.68 69.22 681.24 78.6" fill="#0071b9"/><polygon points="553.38 8.87 482.77 89.85 503.31 83.94 570.54 0 553.38 8.87" fill="url(#d)"/><polygon points="931.13 119.59 948.47 110.35 943.51 153.75 931.13 119.59" fill="#1d2c5e"/><polygon points="823.41 147.42 838.81 150.58 858.48 141.03 841.41 134.66 823.41 147.42" fill="#1d2c5e"/><polygon points="292.24 101.34 294.7 151.63 316.21 142.95 309.77 91.93 292.24 101.34" fill="url(#e)"/><polygon points="840.08 86.33 822.77 95.67 823.41 147.42 840.83 138.49 846.29 113.44 840.08 86.33" fill="url(#f)"/><polygon points="837.7 150.72 818.64 320 849.11 314 855.08 141.59 837.7 150.72" fill="#312370"/><polygon points="875.01 328.12 875.55 351.07 934.03 369.71 951.43 360.49 894.05 316.03 835.93 310.93 818.64 320 875.01 328.12" fill="#21386e"/><polygon points="658.07 287.74 672.44 280 681.6 296.93 695.14 289.48 697.84 311.79 782.86 326.87 799.85 317.53 682.61 246.09 599.45 260.35 583.23 275.77 658.07 287.74" fill="#21386e"/><polygon points="630.99 79.46 613.97 88.83 583.23 275.77 600.45 266.82 629.96 161.86 630.99 79.46" fill="url(#g)"/><polygon points="495.18 104.52 481.62 111.74 482.76 116.26 515.03 95.76 500.93 80.63 482.77 89.85 495.18 104.52" fill="#1d2c5e"/><polygon points="532.25 325.33 393.6 256.65 411.01 243.5 549.5 316.02 532.25 325.33" fill="#21386e"/><polygon points="406.63 69.73 385.62 109.57 407.82 102.85 423.84 60.4 406.63 69.73" fill="#1d2c5e"/><path d="M266.62,261.57l-17.73,12.16s3.77,19.78,8.62,33.54S274,332.17,274,332.17a63.61,63.61,0,0,0,26.78,15.56c19.61,5.65,41.74,2,60.74-10.14a116.47,116.47,0,0,0,15.85-12.15C358.69,336.77,266.62,261.57,266.62,261.57Z" transform="translate(-50.55 -27.24)" fill="url(#h)"/><polygon points="310.93 147.53 327.1 325.99 393.2 316.21 410.88 306.95 328.86 136.83 311.98 142.52 294.7 151.63 310.93 147.53" fill="#1d2c5e"/><polygon points="63.14 209.52 136.99 377 207.15 354.37 224.28 342.85 78.66 190.49 60.44 201.41 45.88 216.93 63.14 209.52" fill="url(#i)"/><path d="M845.58,315.77l1,8.23c6-.68,12.39-1.47,17.82-3.4,6.34-2.17,20.09-8.29,25.32-12.81-2,.72-34.19,9.07-44.13,8" transform="translate(-50.55 -27.24)" fill="#1d2c5e"/><path d="M597.36,273,600,286.25c14.2-2.12,26.39-7.37,38.38-14.57,7.52-4.48,15.77-11.24,18.38-13C654.91,259.82,597.36,273,597.36,273Z" transform="translate(-50.55 -27.24)" fill="#1d2c5e"/><path d="M206.74,388.36l-5.48-12.18-70-156.27-1.44-3.21-3.18,1.47-2.13,1L112,225.27c-1.84-3.08-4.89-8.25-7-11.83L76.83,165.81l-7.37-12.44,12.2-7.72a267.18,267.18,0,0,1,38.73-20.2c28.21-12,57-18.38,83.27-18.38a145.24,145.24,0,0,1,24.85,2.07,79.71,79.71,0,0,1,35.19,12.44A77.39,77.39,0,0,1,297,158.13c5.44,12.57,6.5,27.29,3.05,42.56l-2,9,7.45-5.4A86.26,86.26,0,0,1,321.64,195a78.08,78.08,0,0,1,30.47-6.33,66.31,66.31,0,0,1,27.35,5.71l5.43,2.44-.54-5.93L382,165.29l-.39-4.06-4,1-11.86,3.07-2.08-43.6L450.6,94l-.7,33.89,6.54,1.68,19-36.37,56.83,50.41,2.37,2.11,2.31-2.18a89.07,89.07,0,0,1,27.43-17.45l4.35-1.78-3-3.63-10.25-12.49,65.26-75.22,34.17,51L602.6,112.05,591,118.3l13.19.28c24.8.52,46.76,11,61.83,29.54l5.44,6.71,3.51,4.32-5.83,6.19-3.88,4.13-13.07,13.94L649.74,186l2.62,2.37,12.26,11,4.73,4.26,1-6.29,4.7-29.09,1.2-7.47,0,0,1.24-7.63,7-43h65.58l.49-2.9,1.23-7.35h56.41l13.66,86.3.89,5.59,4.58-3.32a79.09,79.09,0,0,1,18.18-9.83,75.21,75.21,0,0,1,26.58-5,65,65,0,0,1,29.9,7.1,4.64,4.64,0,0,0,1,.58l4.24,1.7.5-4.55,1-9.4.34-3.08-3-.68-11.43-2.56-.56-45,87.2,19.2,6.56,32.37,6.77.14,6.75-27.86,72.72,17.68-74.31,224-53.18-16.7-.37-20.63-.06-3-2.93-.41-53.06-7.49,3-27,.71-6.42-5.74,2.94a72.75,72.75,0,0,1-7.84,3.47A74.52,74.52,0,0,1,854,313.18a68.86,68.86,0,0,1-7.63-.42l-4.54-.51.71,4.5,3.74,23.72-77.42-13.66-4.05-35.19-1.31-11.29-5.21,10.09-8.92,17.18-16.41-30.29-4.93-9.1-1.55,10.23-3.58,23.45L655,291.21,660.28,259l1.2-7.38-6.41,3.83c-11.11,6.66-23.86,11.67-39,15.32a107,107,0,0,1-16.43,2.65l-3.18.26v63.93l-133.62-66-5-2.48v5.6l.1,56.48L398.19,340l-2.51-27.12-.68-7.26-5.2,5.11a85.57,85.57,0,0,1-26.43,17.81,77.07,77.07,0,0,1-30.24,6.31,65.32,65.32,0,0,1-28.44-6.29C288.59,320.81,277,306.76,272,289a65.72,65.72,0,0,1-1.91-26.15l1.18-9.61-7,6.67a168.06,168.06,0,0,1-15.84,13.3l-1.89,1.39.6,2.27,20.12,77.25,3.56,13.71-13.48,4.28-37.89,12.14-12.68,4.08Zm17-207.38a34.6,34.6,0,0,0-6,.54l-2.58.5-3.8.73,1.14,3.71.75,2.41,10.84,35.46,1.08,3.4,1.61,5.12,4-3.57,2.66-2.37c10.5-9.44,14.18-19,12-31.11-1.4-7.25-7-10.86-10.25-12.37A26.06,26.06,0,0,0,223.75,181Zm290.47,1.16-6.77,6.59-17.84,17.34-3.88,3.77,5.06,1.95,19.12,7.39,5.88,2.26-1.21-6.18a81.92,81.92,0,0,1-1.25-23.71l.89-9.41Zm77.89-19.71a26.78,26.78,0,0,0-23.36,39.63l1.45,2.73,2.34,4.36,3.29-3.68,2.12-2.35,26.16-29.87,2.06-2.37,3.3-3.79-4.71-1.74-2.93-1.09a26.8,26.8,0,0,0-9.72-1.83Z" transform="translate(-50.55 -27.24)" fill="#ffcb05"/><path d="M632.14,206.68a4.35,4.35,0,0,0-.68.79c.26-.24.52-.45.79-.67Z" transform="translate(-50.55 -27.24)" fill="#7d7f68"/><polygon points="604.15 158.54 617.22 144.6 612.74 149.35 612.87 148.75 608.92 152.92 595.87 166.82 608.1 177.82 610.31 164.12 616.4 169.57 604.15 158.54" fill="#7d7f68"/><polygon points="604.15 158.54 616.4 169.57 621.1 140.47 617.22 144.6 604.15 158.54" fill="#7d7f68"/><path d="M492,208.55l.2.08Z" transform="translate(-50.55 -27.24)" fill="#7d7f68"/><path d="M564.38,220.65c1,1,.08.3,1.25,1.1l8-5.64a33.15,33.15,0,0,1-3.44-2.75C558.58,202.8,561.6,179,569.12,166c-19.81,16-18.78,40.57-4.74,54.63" transform="translate(-50.55 -27.24)" fill="#c7a008"/><path d="M660.86,234c-13.2,10.91-28.24,18-48.12,22.84A94.46,94.46,0,0,1,600,258.88c-31.56,3.11-58-11.38-68.08-34.89a49.69,49.69,0,0,1-2.94-8.8c-4.65-19.79-.68-37.48,9.09-51.34,1-1.35,2-2.63,3.06-3.94-.5.43-1,.79-1.43,1.19a65.65,65.65,0,0,0-9.91,11C520,186,516,203.69,520.69,223.45a50.45,50.45,0,0,0,2.89,8.78c10,23.55,36.54,38,68.06,35a92.46,92.46,0,0,0,12.8-2.15c19.9-4.81,34.94-11.89,48.14-22.81a106.91,106.91,0,0,0,9.35-8.71l-.28-.27c-.3.26-.53.49-.79.71" transform="translate(-50.55 -27.24)" fill="#c7a008"/><polygon points="387.93 146.88 423.18 97.34 421.75 96.02 387.74 143.8 387.93 146.88" fill="#c7a008"/><polygon points="621.1 140.47 616.4 169.57 610.31 164.12 608.1 177.82 595.87 166.82 608.92 152.92 612.87 148.75 612.74 149.35 617.22 144.6 621.1 140.47" fill="#c7a008"/><polygon points="577.53 58.87 589.88 53.57 567.31 24.61 559.91 34.94 577.53 58.87" fill="#c7a008"/><path d="M286.28,157.85c-57-69.42-159.67-32.1-196.57.37l1.44,2.49A241.57,241.57,0,0,1,118,147.49c36.66-15.66,71.61-20.25,99.63-15.34,9.9,1.13,20.39,4.07,29.52,10.18,12.64,7.08,22.22,17.15,27.82,30,9.94,22.85,1.19,53.24-22.22,78.68C282.1,224.12,302.19,198.35,286.28,157.85Z" transform="translate(-50.55 -27.24)" fill="#c7a008"/><path d="M402.53,238.73a33,33,0,0,0-.94-3.77,47.5,47.5,0,0,0-19.14-26.89c-14.63-9.93-35.05-12-55.4-3.38A76.66,76.66,0,0,0,299.68,225,74.9,74.9,0,0,1,318.79,213c20.3-8.62,40.72-6.58,55.4,3.34a47.83,47.83,0,0,1,19.15,26.88c.37,1.23.65,2.53.93,3.83a57.4,57.4,0,0,1,1.11,13.37c-.43,13.29-5.35,26.66-13.54,38.09-1.32,1.8-2.71,3.49-4.15,5.16a76.65,76.65,0,0,0,12.38-13.46c8.23-11.35,13.14-24.76,13.57-38.12a53.61,53.61,0,0,0-1.11-13.36" transform="translate(-50.55 -27.24)" fill="#c7a008"/><path d="M346.42,221.78c-.08.13,8.27-8.27,8.18-8.27-10.45-.39-14.86,9.45-15.22,10.23a20.72,20.72,0,0,1,7-2" transform="translate(-50.55 -27.24)" fill="#c7a008"/><path d="M366.09,233.82a15.1,15.1,0,0,1,.65,4.37,14.8,14.8,0,0,1-1.37,6.18c1.67-.87,13.75-6.73,9.07-19.14.25.39-8.65,8.55-8.35,8.59" transform="translate(-50.55 -27.24)" fill="#c7a008"/><path d="M318.59,240.73c0-5.11,8.74-17.49,11.47-21.62-13.81,8.77-19.75,20.61-19.75,29.94,0,16,14,28.84,30.83,28.84,7.95,0,22.49-4.2,32-19.6-5,3.28-17.66,11.13-24.31,11.13-16.79,0-30.25-12.62-30.25-28.69" transform="translate(-50.55 -27.24)" fill="#c7a008"/><polygon points="386.21 228.12 386.42 292.81 396.69 293.39 394.66 219.65 386.21 228.12" fill="#c7a008"/><polygon points="327.28 104.96 327.49 110.71 376.14 96.22 379.75 158.18 387.87 146.8 386.13 84.63 327.28 104.96" fill="#c7a008"/><polygon points="474.36 127.15 428.65 85.2 423.18 97.34 463.41 135.13 474.36 127.15" fill="#c7a008"/><path d="M518,232.55,464.3,214.81l-7.81,8.26,53.45,21.39a74.5,74.5,0,0,0,26.82,28.36,87.67,87.67,0,0,0,37.54,12.25v26.4l8.29,4.14L585.21,276,518,232.55Z" transform="translate(-50.55 -27.24)" fill="#c7a008"/><path d="M604.12,225.09c13.18-3.18,20.78-10.05,27.33-17.62-4.91,4-29.53,9.39-33.67,10.79l-8.1,8.64c3.7.33,9.9-.67,14.44-1.81" transform="translate(-50.55 -27.24)" fill="#c7a008"/><path d="M580.16,133.85c-24.3,3.18-37,23.58-39.06,26.06A78.92,78.92,0,0,1,574,143.71c30.07-7.28,56.58,1.89,73,22.15l10.15-8.58c-16.23-19.91-46.88-30.68-76.94-23.43" transform="translate(-50.55 -27.24)" fill="#c7a008"/><path d="M661.65,233.25c2.93-2.46,8.14-4.95,10.91-7.86L640,196.32c-2.5,3-4.75,7.89-7.79,10.47l29.41,26.46Z" transform="translate(-50.55 -27.24)" fill="#c7a008"/><path d="M828.63,311.16c-34.14-28.06-32.1-88.22-15.34-107.31l-15-94.29-32.9,4.25-1.46,8.3h24.89L802,207.66c-16.77,19.15-24.88,44.81-19.27,68.29,4.34,18.15,15.49,32.84,31.53,41.34,1.62.88,3.28,1.65,5,2.38l.21,1.26,9.79,1.54s1-10.49-.58-11.31Z" transform="translate(-50.55 -27.24)" fill="#c7a008"/><polygon points="646.88 96.2 645.46 104.51 682.98 104.51 694.03 165.1 702.36 156.69 693.6 92.73 646.88 96.2" fill="#c7a008"/><polygon points="711.11 213.82 698.99 245.11 701.99 253.26 719.32 205.6 711.11 213.82" fill="#c7a008"/><polygon points="675.13 194.11 666.79 202.44 657.85 258.96 666.41 262.23 675.13 194.11" fill="#c7a008"/><path d="M894.19,203.3a43.76,43.76,0,0,1,12.25,13.22A46.53,46.53,0,0,1,912,230.07c4.09,17-.8,35.36-11.6,50.11-1.09,1.49-2.29,2.94-3.43,4.36,4.39-3.78,57.68-43.08,5.61-94.71-57.27-18.88-78.94,18.48-81,20.85a71.48,71.48,0,0,1,20.6-12.29c19.38-7.34,38.45-4.79,52,4.91" transform="translate(-50.55 -27.24)" fill="#c7a008"/><path d="M865.32,207c.16.36,8.22-8.4,8.39-8.4-10.19.42-15.09,5.34-14.59,7.61a13.62,13.62,0,0,0-1.49,2.72,23.68,23.68,0,0,1,7.69-1.93" transform="translate(-50.55 -27.24)" fill="#c7a008"/><path d="M884.48,219.83a15.22,15.22,0,0,1,.51,4.33,15,15,0,0,1-1.35,5.46c1.55-.7,13.9-4.54,9.18-18.13.13.39-8.47,8.35-8.34,8.34" transform="translate(-50.55 -27.24)" fill="#c7a008"/><path d="M857.43,263c11.52.49,24.27-6.59,33.41-19.11-23.46,4.82-48.11-34.24-45.64-38.07-8.86,6.43-16.71,18.82-17.07,27.48-.61,16.06,12.47,29,29.3,29.7" transform="translate(-50.55 -27.24)" fill="#c7a008"/><polygon points="935.41 337.51 940.91 341.19 1008.01 139.8 957.79 128.2 957.16 139.99 997.68 148.98 935.41 337.51" fill="#c7a008"/><polygon points="855.73 106.61 856.16 117.86 909.56 128.58 930.12 226.07 938.44 217.69 918.85 119.19 855.73 106.61" fill="#c7a008"/><polygon points="896.82 217.71 882.12 300.85 890.58 303.59 905.17 209.52 896.82 217.71" fill="#c7a008"/><polygon points="203.91 331.35 178.93 240.81 169.79 247.2 192.94 333.95 203.91 331.35" fill="#c7a008"/><path d="M248,222.43c-5.77,6.12-18.54,18-25.81,22.68l-4.42-14.19-9.67-31.1-6.15-21.06-6,7.71,6.13,21.08,9.68,31.08,4.4,14.23c10-6.42,24.45-18.46,31.85-30.43" transform="translate(-50.55 -27.24)" fill="#c7a008"/><path d="M601.85,168.89c-7.89-3-19.05-2.12-25.08,4.48a44.82,44.82,0,0,0-5,7.18c5.83-4.64,16.22-5.65,23-3.19l7-8.47Z" transform="translate(-50.55 -27.24)" fill="#7d7f68"/><path d="M240.77,197c-.89-4.66-5.45-8.35-7.68-9.38-4-1.93-10.92-2.23-16-1.31.91,3.14,1.95,6.81,2.39,8.32a32.32,32.32,0,0,1,7.18,1.7c2.22,1.07,6.1,3.59,7,8.27,1.2,6.26.89,12.1-1.72,16.85,7.15-7,10.61-14.64,8.8-24.45" transform="translate(-50.55 -27.24)" fill="#7d7f68"/><path d="M253.28,196.86c-3.43-18.41-27.49-28.55-51.35-15.54l6.15,21.07,9.67,31.13,4.41,14.17C240.07,236.18,258.06,222.35,253.28,196.86Zm-23.7,28.3c-2.6-8.5-8.32-26.87-8.32-26.87s-1.12-3.93-2.49-8.52c5.06-.9,9.92-.54,13.92,1.39,2.23,1.06,6.16,3.54,7,8.25C241.69,210,238.12,217.55,229.58,225.16Z" transform="translate(-50.55 -27.24)" fill="#3c5aa6"/><path d="M614.34,167.66a32.71,32.71,0,1,0-44.16,48.27,28.68,28.68,0,0,0,3.45,2.75l43-48.72C615.89,169.16,615.13,168.38,614.34,167.66Zm-40.63,34.27a21.11,21.11,0,0,1,26.16-29.83Z" transform="translate(-50.55 -27.24)" fill="#3567b0"/><polygon points="621.27 135.07 597.45 158.03 620.08 178.35 621.27 135.07" fill="#1e2d5f"/><path d="M892.76,211.49a15.82,15.82,0,0,1,.5,4.4c-.39,9.11-9,16.13-19.15,15.66s-18.21-8.09-17.81-17.17c.35-8.51,7.93-15.25,17.3-15.68A30.42,30.42,0,0,0,868,198c-17.07-.74-31,11.35-31.61,26.4-.65,16.09,12.25,29.21,29,29.94,17.09.68,31-11.45,31.71-27.46a26.35,26.35,0,0,0-4.41-15.41" transform="translate(-50.55 -27.24)" fill="#3466af"/><path d="M375.05,229.87c0,9.14-8.31,16.47-18.5,16.47s-18.49-7.33-18.49-16.47c0-8.52,7.29-15.54,16.63-16.36a31.63,31.63,0,0,0-5.58-.51c-17.06,0-30.52,12.66-30.52,27.73,0,16.08,13.47,28.69,30.25,28.69,17.08,0,30.52-12.62,30.52-28.69a25.49,25.49,0,0,0-5-15.13,13.6,13.6,0,0,1,.69,4.27" transform="translate(-50.55 -27.24)" fill="url(#j)"/><path d="M998.9,137.54l-7.57,31.23-7-34.58-93.7-20.62.66,52.1,14.12,3.17-1,9.39a1.46,1.46,0,0,1-.4-.26c-17.5-9.24-39.2-10.18-59.63-2.47a82.25,82.25,0,0,0-19,10.26L811.25,96.53H748.93l-1.71,10.26H681.63l-7.49,45.87-5.44-6.72c-15.9-19.53-38.94-30.28-64.46-30.82l55.69-29.93L621.09,27.24l-70.15,80.84,12.11,14.77A92.4,92.4,0,0,0,534.55,141L474.4,87.61l-21,40.31.8-38.74-94.05,30,2.42,50.53,16-4.15,2.36,25.61c-18.28-8.21-40.26-8-60.64.6a89.84,89.84,0,0,0-16.86,9.63c3.53-15.6,2.69-31-3.25-44.69a80.49,80.49,0,0,0-34.52-38.06,82.83,82.83,0,0,0-36.52-13c-32.54-5.69-71.62.16-110.08,16.54A271.07,271.07,0,0,0,79.8,142.71l-15,9.53,9.08,15.33L102,215.2s8.62,14.59,8.68,14.59l15.23-7.49,2.13-1,70,156.28,6.75,15,15.64-5,37.88-12.14L275,370.17l-4.38-16.9L250.47,276a170.2,170.2,0,0,0,16.17-13.59,69.83,69.83,0,0,0,2,27.52c5.26,18.72,17.52,33.51,34.54,41.71,18.38,8.83,40.8,8.85,61.54.05a89.43,89.43,0,0,0,27.5-18.51L395.09,344l66.34-9.77-.1-59.49L600,343.22V276.88a108.54,108.54,0,0,0,16.94-2.74c15.27-3.69,28.34-8.75,40-15.71L651,294.06l74.75,11.77,4.1-26.9L749.41,315l11.93-23,4.36,37.76,84.75,14.94L846,316.19a76.71,76.71,0,0,0,35.64-4.71,75.14,75.14,0,0,0,8.2-3.64l-3.37,30.34,56.4,7.95.42,23.14,58.82,18.46,76.57-230.8L998.9,137.54Zm-331.13,34.3,3.88-4.13L667,196.81l-12.25-11ZM618.1,53l20.53,27.89L579.93,110l-4.06-6.16ZM229.37,268.07l23.42,89.87-37.91,12.11L137.09,196.32c-4.23,2.23-12,6-19.22,9.47L89.7,158.21a245.51,245.51,0,0,1,36.56-19c36.67-15.6,71.66-20.26,99.64-15.31,9.9,1.11,20.38,4,29.56,10.12,12.6,7.1,22.23,17.19,27.79,30.05C296.8,195.37,274.16,240.42,229.37,268.07Zm174.28-16c-.43,13.38-5.35,26.79-13.57,38.13a75.92,75.92,0,0,1-31.62,25.56c-32.89,13.94-65.77,0-74.56-31.22-8.51-30.19,11.29-66.13,43.16-79.86,20.35-8.59,40.77-6.55,55.39,3.39A47.5,47.5,0,0,1,401.6,235a37.75,37.75,0,0,1,.94,3.77A54.61,54.61,0,0,1,403.65,252.07Zm178.94,63.54L445,246.81l.25,72.08-35.59,4.86L407.21,294c11-18.84,15-41,9.27-61.39A64.38,64.38,0,0,0,399.62,204l-5.11-60.58-16,4.14-.71-15.32,57.15-17,3.5,58.93L480.58,115l41.15,39.19-57.55,60.63,54.07,21.39a74.27,74.27,0,0,0,26.81,28.34,87.61,87.61,0,0,0,37.52,12.31v38.78Zm-71.42-99.68L492,208.55l17.84-17.34A85.48,85.48,0,0,0,511.17,215.93Zm149.69,18c-13.2,10.91-28.24,18-48.12,22.84A94.46,94.46,0,0,1,600,258.88c-31.56,3.11-58-11.38-68.08-34.89a49.69,49.69,0,0,1-2.94-8.8c-4.65-19.79-.68-37.48,9.09-51.34a62.14,62.14,0,0,1,9.92-11,79,79,0,0,1,34.33-17.41c30.06-7.25,56.54,1.93,72.77,21.84l-57.28,61c3.88.73,10.06-.29,14.62-1.38,13.64-3.33,21.27-10.57,28-18.46L663.29,219l6.94,6.26A125.23,125.23,0,0,1,660.86,234Zm121.53,81.36-12.46-82.54-17.62,45.54L725.92,221.4h-.3L715.2,287.31l-44-7.65,6.18-36.78c1.66-1.56,3.3-3.13,4.9-4.78l14.26-14.67L682.7,211l14.72-87.59h44.37l11.11,60.63,12.45-70.26h31.73l13.17,85.6c-16.76,19.1-24.9,44.76-19.3,68.24,4.33,18.2,15.52,32.86,31.56,41.42,1.61.81,3.28,1.62,5,2.31l1.68,11.1-46.8-7.15ZM892,288.43a67.9,67.9,0,0,1-15.92,8.5,59.2,59.2,0,0,1-32.63,3.22,48.66,48.66,0,0,1-18.93-8.06,47.19,47.19,0,0,1-18.19-27.66C803,250.2,806,235,813.7,221.7a76.81,76.81,0,0,1,14.5-17.88,72.28,72.28,0,0,1,22.28-13.74c19.39-7.23,38.52-4.74,52,4.94a45.62,45.62,0,0,1,12.3,13.17,47,47,0,0,1,5.52,13.56c4.13,17.08-.78,35.38-11.56,50.13A74.49,74.49,0,0,1,892,288.43Zm99,77.8-32.52-9.69-2.84-119.89L939.3,329.14l-35.48-5.66,2.54-26.63c23.17-19.58,35.45-50.46,28.72-78.45A61.54,61.54,0,0,0,916.77,187l3-31.41L906.35,152l.9-16.77,61.12,12.29L988.92,245,1010,157.64l46.5,10.28L991,366.23Z" transform="translate(-50.55 -27.24)" fill="url(#k)"/><path d="M1017.73,377.59v-9h-3.38v-1.21h8.14v1.21h-3.4v9Z" transform="translate(-50.55 -27.24)"/><path d="M1023.85,377.59V367.33h2l2.43,7.27c.22.67.39,1.18.49,1.52q.18-.57.54-1.65l2.46-7.14h1.83v10.26h-1.31V369l-3,8.59h-1.23l-3-8.73v8.73Z" transform="translate(-50.55 -27.24)"/></g><g clip-path="url(#l)"><polygon points="352.16 89.76 376.28 165.15 395.4 153.77 367.22 80.15 352.16 89.76" fill="url(#m)"/><polygon points="947.93 171.3 944.41 179.7 964.61 177.94 964.72 166.68 947.93 171.3" fill="#0071b9"/><polygon points="852.04 86.45 775.63 141.98 794.4 140.95 868.49 82.21 852.04 86.45" fill="url(#n)"/><polygon points="1154.05 255.47 1170.71 250.95 1157.95 287.18 1154.05 255.47" fill="#1d2c5e"/><polygon points="1056.26 258.18 1068.85 263.9 1087.57 259.58 1074.2 250.78 1056.26 258.18" fill="#1d2c5e"/><polygon points="610.09 114.44 602.33 158.02 622.47 154.8 626.96 109.82 610.09 114.44" fill="url(#o)"/><polygon points="1082.54 209.09 1065.88 213.7 1056.26 258.18 1072.94 253.94 1082.55 233.55 1082.54 209.09" fill="url(#p)"/><polygon points="1067.87 263.81 1018.31 405.15 1045.6 405.98 1084.55 259.4 1067.87 263.81" fill="#312370"/><polygon points="1065.02 423.16 1060.98 442.94 1107.44 470.39 1124.17 465.9 1083.71 416.54 1034.9 400.76 1018.31 405.15 1065.02 423.16" fill="#21386e"/><polygon points="887.02 345.98 900.86 342.17 905.39 358.47 918.46 354.75 916.39 374.4 986.29 404.01 1002.69 399.34 916.24 315.11 842.16 311 825.24 321.03 887.02 345.98" fill="#21386e"/><polygon points="904.7 162.17 888.27 166.86 825.24 321.03 841.75 316.74 887.64 232.58 904.7 162.17" fill="url(#q)"/><polygon points="783.39 156.99 770.35 160.52 770.44 164.62 802.12 153.38 793 137.65 775.63 141.98 783.39 156.99" fill="#1d2c5e"/><polygon points="771.82 353.51 666.48 267.44 683.98 259.58 788.43 348.91 771.82 353.51" fill="#21386e"/><polygon points="714.33 109.8 688.5 139.82 708.85 138.42 730.91 105.18 714.33 109.8" fill="#1d2c5e"/><path d="M569.26,240.7l-17.58,7s-.65,17.69.8,30.43,9.24,24.57,9.24,24.57a56,56,0,0,0,19.9,18.6c15.7,8.68,35.38,9.87,54,3.22a101,101,0,0,0,16-7.3C633.41,323.22,569.26,240.7,569.26,240.7Z" transform="translate(-50.55 -27.24)" fill="url(#r)"/><polygon points="617.04 157.69 595.88 313.81 654.44 318.4 671.42 313.93 634.51 152.04 618.93 153.6 602.33 158.02 617.04 157.69" fill="#1d2c5e"/><polygon points="392.52 162.19 422.94 320.21 487.51 314.58 504.45 308.08 409.55 148.92 391.8 154.71 376.28 165.15 392.52 162.19" fill="url(#s)"/><path d="M1054.79,400.78,1054,408c5.31.61,10.91,1.18,15.94.59,5.86-.61,18.85-3.17,24.22-6-1.82.23-31.09,1.06-39.4-1.82" transform="translate(-50.55 -27.24)" fill="#1d2c5e"/><path d="M850.46,315.42l-.34,11.86c12.59,1,24.06-1.14,35.75-5,7.32-2.36,15.72-6.53,18.31-7.56C902.37,315.4,850.46,315.42,850.46,315.42Z" transform="translate(-50.55 -27.24)" fill="#1d2c5e"/><path d="M493.06,337.61l-2.31-11.52L461.42,178.43l-.61-3-3,.63-2,.42-11.89,2.8c-1-3-2.57-8-3.69-11.52l-14.8-46.35-3.88-12.1,12-4.23a236.15,236.15,0,0,1,37.15-9.71c26.54-4.76,52.47-4.56,75,.6a127.74,127.74,0,0,1,20.9,6.64,70.26,70.26,0,0,1,27.72,17.58A68.1,68.1,0,0,1,615.57,158c2.19,11.84.21,24.66-5.75,37.07l-3.5,7.29,7.45-3.17a76.18,76.18,0,0,1,15.71-4.75,68.47,68.47,0,0,1,27.35.55,58.21,58.21,0,0,1,22.33,10.27l4.17,3.15.7-5.18,3-22.41.47-3.55-3.59.1-10.77.31,6.77-37.77,79.92-6.74-7.25,28.9,5.27,2.72,23.4-27.44,38.82,54.35,1.62,2.28,2.4-1.41A78.25,78.25,0,0,1,851,183l4.07-.67-1.84-3.7-6.33-12.71,70.68-51.66,19.28,50.41L886.54,178.5l-11.18,3.08,11.25,2.82c21.15,5.32,37.91,18.62,47.19,37.45l3.35,6.83,2.16,4.39-6.21,4.16L929,240,915,249.38l-2.59,1.75,1.78,2.55,8.34,11.85,3.22,4.59,2.11-5.19,9.74-24,2.49-6.17,0,0,2.55-6.3,14.45-35.44,53.68,12.29,2.52.58,1-2.38,2.49-6.07,48.35,11.07-5.23,76.65-.33,5,4.57-1.94a69.53,69.53,0,0,1,17.51-4.86,66.31,66.31,0,0,1,23.76,1,57.17,57.17,0,0,1,24.22,11.95,4.25,4.25,0,0,0,.77.7l3.3,2.29,1.32-3.8,2.73-7.86.89-2.58-2.47-1.17-9.3-4.43,8.35-38.67,71,33.56-.74,29,5.78,1.45,11.26-22.55,58.85,29.42L1173.73,489l-42.29-24.75,3.72-17.75.54-2.55-2.44-.92-44-16.84,7.87-22.52,1.87-5.36-5.5,1.39a61.41,61.41,0,0,1-7.4,1.43,65.6,65.6,0,0,1-23.6-.94,60,60,0,0,1-6.46-1.87l-3.79-1.32-.27,4-1.46,21.06-63.66-26.9,3.43-31,1.1-9.92-6.45,7.61-11,13-8.12-29.18L963.37,337,960,345.4l-7.67,19.4-56.05-22.47,10.82-26.55,2.48-6.09-6.25,2c-10.82,3.53-22.74,5.32-36.41,5.48a92.84,92.84,0,0,1-14.6-1l-2.78-.39-.62,2.74-11.92,52L735.47,287.81l-3.81-3.11-1.1,4.8-11,48.42-52.93-4.18L669.8,310l.84-6.36L665.18,307A75.16,75.16,0,0,1,639,317.08a67.66,67.66,0,0,1-27.15-.52,57.31,57.31,0,0,1-23.14-11c-12.28-9.79-19.47-24.12-20.26-40.29A57.8,57.8,0,0,1,572,242.5l2.89-8-7.32,4.34a149.23,149.23,0,0,1-16.18,8.29l-1.89.82.06,2.06,2.09,70.15.36,12.45-12.39,1-34.86,3-11.67,1Zm55.28-174.39a29.77,29.77,0,0,0-5.26-.71l-2.3-.08-3.41-.12.26,3.4.16,2.21,2.33,32.52.26,3.13.38,4.7,4.13-2.27,2.74-1.51c10.86-6,15.89-13.52,16.37-24.31.22-6.49-3.88-10.69-6.35-12.62a23,23,0,0,0-9.31-4.34Zm248.71,58-7.1,4.33L771.26,236.9l-4.07,2.47,3.95,2.67,15,10.08,4.59,3.09.17-5.53a72.33,72.33,0,0,1,3.58-20.57l2.62-7.89Zm70.62-1.6A23.55,23.55,0,0,0,839.87,249l.71,2.62,1.14,4.2,3.55-2.51,2.27-1.6,28.29-20.46,2.23-1.63,3.57-2.6-3.69-2.42-2.3-1.5a23.39,23.39,0,0,0-8-3.48Z" transform="translate(-50.55 -27.24)" fill="#ffcb05"/><path d="M893.29,265.39a3.84,3.84,0,0,0-.74.55l.81-.42Z" transform="translate(-50.55 -27.24)" fill="#7d7f68"/><polygon points="866.17 224.68 880.11 215.29 875.34 218.48 875.57 218 871.37 220.79 857.45 230.14 865.77 241.97 870.36 230.66 874.51 236.53 866.17 224.68" fill="#7d7f68"/><polygon points="866.17 224.68 874.51 236.53 884.24 212.52 880.11 215.29 866.17 224.68" fill="#7d7f68"/><path d="M772.85,239.5l.15.11Z" transform="translate(-50.55 -27.24)" fill="#7d7f68"/><path d="M832.47,264.07c.69,1.11,0,.27.86,1.19l8-3.26a29.38,29.38,0,0,1-2.41-3c-7.87-11.34-.62-31.12,8.38-40.79-20.11,9.81-24,31.09-14.79,45.89" transform="translate(-50.55 -27.24)" fill="#c7a008"/><path d="M912.55,294.41c-13.45,6.77-27.75,9.92-45.73,10.13a81.93,81.93,0,0,1-11.35-.72c-27.65-3.53-47.5-21.15-51.49-43.26a43.83,43.83,0,0,1-.8-8.12c-.1-17.88,6.77-32.26,17.87-42.22,1.1-1,2.22-1.86,3.4-2.77-.52.27-1,.48-1.46.74a56.87,56.87,0,0,0-10.66,7.5c-11.11,10-18,24.35-17.84,42.21a44,44,0,0,0,.75,8.09c4,22.16,23.84,39.77,51.47,43.31a79.75,79.75,0,0,0,11.38.67c18-.21,32.28-3.33,45.74-10.1a93.33,93.33,0,0,0,9.72-5.62l-.19-.29c-.3.17-.54.32-.81.45" transform="translate(-50.55 -27.24)" fill="#c7a008"/><polygon points="683.16 172.25 723.1 136.71 722.13 135.3 683.6 169.57 683.16 172.25" fill="#c7a008"/><polygon points="884.24 212.52 874.51 236.53 870.36 230.66 865.77 241.97 857.45 230.14 871.37 220.79 875.57 218 875.34 218.48 880.11 215.29 884.24 212.52" fill="#c7a008"/><polygon points="862.92 134.03 874.54 131.91 860.89 102.66 852.52 110.06 862.92 134.03" fill="#c7a008"/><path d="M606.46,155.67C571.25,85,475.93,96.82,437.93,117.41l.75,2.42a212.47,212.47,0,0,1,25.6-6.07c34.49-6.22,65.34-3.29,88.39,6.41,8.26,2.91,16.68,7.49,23.3,14.52,9.45,8.55,15.68,19.06,17.95,31.21,4,21.54-9.44,45.86-34.49,63.07C589.88,211.65,612.15,193.5,606.46,155.67Z" transform="translate(-50.55 -27.24)" fill="#c7a008"/><path d="M690.23,247.8a32.34,32.34,0,0,0-.07-3.41A41.79,41.79,0,0,0,679,217.59c-10.59-11.39-27.68-17.14-46.81-13.78a67.57,67.57,0,0,0-27.44,12,66.08,66.08,0,0,1,18.72-6.48c19.1-3.4,36.2,2.35,46.83,13.73a42.13,42.13,0,0,1,11.14,26.8c.07,1.13,0,2.29,0,3.46A50.59,50.59,0,0,1,679.83,265c-3,11.3-9.81,21.8-19.07,30-1.49,1.29-3,2.46-4.57,3.61a67,67,0,0,0,13.25-9.11,61.08,61.08,0,0,0,19.11-30,47.81,47.81,0,0,0,1.68-11.67" transform="translate(-50.55 -27.24)" fill="#c7a008"/><path d="M645.46,222.27c-.09.09,8.71-5.47,8.63-5.49-8.87-2.39-14.59,5.19-15.05,5.78a18.08,18.08,0,0,1,6.42-.29" transform="translate(-50.55 -27.24)" fill="#c7a008"/><path d="M660,236.44a13.39,13.39,0,0,1-.31,3.87,12.92,12.92,0,0,1-2.38,5c1.6-.42,13.1-3.07,11.52-14.62.14.38-9.08,5.63-8.83,5.72" transform="translate(-50.55 -27.24)" fill="#c7a008"/><path d="M617.89,233c1-4.38,10.93-13.27,14.07-16.28-13.55,4.81-21,13.79-22.8,21.79-3.14,13.69,6.38,27.47,20.77,30.76,6.8,1.56,20.1.82,31.27-10.51-4.91,1.83-17.32,6.07-23,4.77-14.38-3.3-23.44-16.76-20.29-30.53" transform="translate(-50.55 -27.24)" fill="#c7a008"/><polygon points="665.74 241.53 653.23 297.01 661.91 299.53 674.65 235.93 665.74 241.53" fill="#c7a008"/><polygon points="639.41 124.42 638.46 129.38 683 126.52 673.93 180.32 683.12 172.17 693.84 118.54 639.41 124.42" fill="#c7a008"/><polygon points="761.1 172.3 730.17 127.38 723.1 136.71 750.15 176.99 761.1 172.3" fill="#c7a008"/><path d="M790.36,265.16l-42.5-25.73L739.54,245l41.61,28.82a65.5,65.5,0,0,0,17.42,29.57,77.11,77.11,0,0,0,29.77,17.87l-5.18,22.63,6.29,5.17,10-33.48-49.12-50.39Z" transform="translate(-50.55 -27.24)" fill="#c7a008"/><path d="M865.67,275.68c11.91-.14,19.78-4.54,26.87-9.74-5,2.49-27.15,2.25-31,2.64l-8.64,5.81c3.11,1,8.62,1.37,12.74,1.29" transform="translate(-50.55 -27.24)" fill="#c7a008"/><path d="M863,192.78c-21.45-2-36.3,12.95-38.58,14.67A69.35,69.35,0,0,1,855.81,200c27.2-.34,48.12,12.72,58.19,33.3L924.37,228c-10-20.25-34.15-35.5-61.34-35.18" transform="translate(-50.55 -27.24)" fill="#c7a008"/><path d="M913.37,294c3-1.53,7.94-2.65,10.89-4.59l-22.18-31.3c-2.72,2.06-5.62,5.83-8.73,7.44l20,28.45Z" transform="translate(-50.55 -27.24)" fill="#c7a008"/><path d="M1041.17,393.5c-23.74-30.74-10.19-81.9,7.92-95l5.62-83.76-29-2.82-2.88,6.83,21.33,4.88-5.5,75.91c-18.13,13.12-30.11,33.51-29.91,54.74.15,16.41,6.82,31.18,18.91,41.62,1.21,1.07,2.48,2.06,3.8,3l-.06,1.12,8.08,3.24s2.94-8.79,1.72-9.81Z" transform="translate(-50.55 -27.24)" fill="#c7a008"/><polygon points="915.03 179.63 912.18 186.48 944.34 193.84 941.92 247.94 950.7 242.36 955.75 185.83 915.03 179.63" fill="#c7a008"/><polygon points="946.99 293.04 930.46 317.48 931.44 325.05 955.64 287.61 946.99 293.04" fill="#c7a008"/><polygon points="920.02 269.09 911.24 274.59 892.49 321.27 899.18 325.76 920.02 269.09" fill="#c7a008"/><path d="M1118.53,313.93a38.68,38.68,0,0,1,7.91,13.73,41.19,41.19,0,0,1,2.11,12.71c.17,15.36-7.63,30.15-19.78,40.67-1.22,1.06-2.53,2.07-3.79,3.06,4.5-2.37,57.88-25.6,23.4-80.07-45.38-27.41-71.29.35-73.49,2a62.54,62.54,0,0,1,20.06-6.49c18-2.49,33.89,3.43,43.58,14.4" transform="translate(-50.55 -27.24)" fill="#c7a008"/><path d="M1093.06,311.45c.07.35,8.69-5.58,8.84-5.55-8.82-1.64-14,1.61-14,3.66a11.61,11.61,0,0,0-1.82,2,21.19,21.19,0,0,1,7-.14" transform="translate(-50.55 -27.24)" fill="#c7a008"/><path d="M1107,326.19a13.66,13.66,0,0,1-.42,3.81,13.23,13.23,0,0,1-2.22,4.42c1.46-.3,12.8-1.16,11.42-13.73,0,.35-8.9,5.48-8.78,5.5" transform="translate(-50.55 -27.24)" fill="#c7a008"/><path d="M1075.31,357.86c9.78,2.68,22.1-.88,32.39-9.81-21-.48-34.51-38.8-31.65-41.59-8.85,3.77-18,12.85-20,20.2-3.68,13.64,5,27.32,19.27,31.2" transform="translate(-50.55 -27.24)" fill="#c7a008"/><polygon points="1114.95 443.07 1118.94 447.3 1215.97 287.88 1175.21 268.08 1172.35 278.06 1205.31 293.72 1114.95 443.07" fill="#c7a008"/><polygon points="1091.97 229.54 1090.14 239.27 1133.79 258.94 1132.28 346.52 1141.05 340.97 1143.6 252.72 1091.97 229.54" fill="#c7a008"/><polygon points="1105.38 332.82 1076.46 401.19 1083.18 405.2 1114.15 327.44 1105.38 332.82" fill="#c7a008"/><polygon points="489.25 294.23 485.61 211.72 476.52 215.41 479.34 294.3 489.25 294.23" fill="#c7a008"/><path d="M561,203.5c-6.13,4.11-19.41,11.78-26.56,14.37l-1-13-2.19-28.56L530.07,157l-6.65,5.42,1.11,19.28,2.19,28.53,1,13.06c9.79-3.55,24.58-11,33.26-19.83" transform="translate(-50.55 -27.24)" fill="#c7a008"/><path d="M874.74,227.07c-6.16-4.15-15.9-5.56-22.36-1.09a40.33,40.33,0,0,0-5.69,5.18c5.91-2.84,15-1.66,20.37,1.79l7.68-5.88Z" transform="translate(-50.55 -27.24)" fill="#7d7f68"/><path d="M559.78,180.28c.16-4.16-3-8.22-4.74-9.54-3-2.44-8.92-4.06-13.43-4.26.17,2.87.34,6.22.42,7.6a27.91,27.91,0,0,1,5.82,2.87c1.69,1.35,4.52,4.27,4.37,8.46-.19,5.59-1.61,10.54-4.78,14.1,7.5-4.61,12-10.47,12.34-19.23" transform="translate(-50.55 -27.24)" fill="#7d7f68"/><path d="M570.53,182.63c.67-16.45-18-29.87-41-23.4l1.13,19.26,2.19,28.58,1,13C551.49,213.73,569.62,205.41,570.53,182.63Zm-25.86,19.6c-.57-7.8-1.86-24.66-1.86-24.66s-.2-3.59-.46-7.79A20,20,0,0,1,554,173.7c1.71,1.35,4.59,4.25,4.4,8.45C558,191.61,553.48,197.38,544.67,202.23Z" transform="translate(-50.55 -27.24)" fill="#3c5aa6"/><path d="M885.69,228.46a28.76,28.76,0,1,0-47.32,32.71,25.92,25.92,0,0,0,2.42,3l46.43-33.31C886.73,230.06,886.23,229.23,885.69,228.46Zm-41.54,21.4a18.56,18.56,0,0,1,28.27-20.43Z" transform="translate(-50.55 -27.24)" fill="#3567b0"/><polygon points="885.46 207.92 860.53 222.92 875.94 244.78 885.46 207.92" fill="#1e2d5f"/><path d="M1115.7,320.67a14.5,14.5,0,0,1-.43,3.87c-2.13,7.73-10.84,12.07-19.49,9.66s-14-10.51-11.89-18.21c2-7.23,9.79-11.51,17.9-10a26.13,26.13,0,0,0-4.65-1.68c-14.48-4-28.8,3.64-32.26,16.42-3.72,13.66,4.76,27.44,19,31.36,14.51,3.94,28.84-3.72,32.56-17.31a23.22,23.22,0,0,0-.75-14.07" transform="translate(-50.55 -27.24)" fill="#3466af"/><path d="M668.41,234.82c-1.8,7.83-10.36,12.48-19.08,10.48s-14.41-9.91-12.62-17.74c1.67-7.3,9.29-11.89,17.46-10.76a27.58,27.58,0,0,0-4.68-1.53c-14.62-3.35-28.64,4.85-31.6,17.77-3.15,13.78,5.91,27.23,20.29,30.53,14.64,3.35,28.64-4.83,31.8-18.6A22.52,22.52,0,0,0,668.66,231a12.11,12.11,0,0,1-.25,3.8" transform="translate(-50.55 -27.24)" fill="url(#t)"/><path d="M1221.18,278.13l-12.63,25.27.79-31-76.25-36.07-9.66,44.78,11.48,5.49-2.72,7.85a1.33,1.33,0,0,1-.29-.3c-13.19-11.35-31.6-16.42-50.62-13.82a72.09,72.09,0,0,0-18.27,5.06l5.39-79.24L1015,193.92l-3.49,8.45-56.2-12.87-15.43,37.84-3.34-6.82c-9.79-19.86-27.42-33.6-49.19-39.06L941,166.73,919,109.45l-76,55.51,7.48,15a81.37,81.37,0,0,0-28,9.95l-41.08-57.55-25.93,30.42,8.29-33-86.5,7.29-7.85,43.78,14.53-.42-3,22.41c-14-10.62-32.93-14.76-52.08-11.38a78.45,78.45,0,0,0-16.34,4.94c6.08-12.68,8.38-26,6-38.94a70.74,70.74,0,0,0-22.12-39.39,72.7,72.7,0,0,0-28.74-18.29c-26.78-11.26-61.42-13.93-97.59-7.43a237.9,237.9,0,0,0-37.63,9.83l-14.76,5.22,4.77,14.92,14.81,46.35s4.52,14.2,4.57,14.2l14.53-3.43,2-.42,29.34,147.68,2.84,14.2L505,339.64l34.85-3,15.26-1.26-.43-15.35-2.09-70.14a150,150,0,0,0,16.53-8.47,61.42,61.42,0,0,0-3.68,24c.84,17.08,8.44,32.16,21.42,42.52,14,11.18,33.22,15.6,52.73,12.13a78.74,78.74,0,0,0,27.2-10.47l-3.59,26.92L722,341.18l11.58-51L838.92,376.1l13-56.85a96.43,96.43,0,0,0,15.06,1c13.81-.16,26-1.94,37.32-5.62l-12,29.4,61.75,24.75,8.8-22.25,9.65,34.74,14.74-17.36-3.67,33.21,69.7,29.44,1.74-25.32a69.07,69.07,0,0,0,39.21,1.45L1085.41,428l46.77,17.89L1128,465.8l46.79,27.36,110.92-182.77-64.53-32.26Zm-290.52-35.6,4.14-2.77-9.73,24-8.34-11.86ZM911.42,130.92l12.13,27.93-56,13.42-2.26-6.08ZM536.06,239l2.44,81.61-34.87,2.94L471.06,159.36c-4.06,1.08-11.49,2.74-18.33,4.35l-14.8-46.31A216.29,216.29,0,0,1,473,108.28c34.49-6.17,65.39-3.29,88.4,6.44,8.27,2.9,16.68,7.45,23.35,14.48,9.4,8.55,15.67,19.09,17.91,31.2C608.12,189.89,579.88,224.06,536.06,239Zm152.5,20.5a61.13,61.13,0,0,1-19.11,30,66.74,66.74,0,0,1-32.11,15.7c-30.92,5.49-56.37-12.91-57.78-41.39-1.37-27.55,22.66-54.46,52.66-60,19.13-3.37,36.23,2.38,46.81,13.77a41.73,41.73,0,0,1,11.13,26.8,30,30,0,0,1,.07,3.42A48.13,48.13,0,0,1,688.56,259.46ZM829.45,349l-104.39-86-13.94,61.82-31.45-2.82,3.71-25.95c13.11-14,20.91-32.23,20-50.8a56.71,56.71,0,0,0-8.83-27.9l7.52-52.92-14.51.42,2.4-13.27,52.32-3.37-8.57,51.2,47.69-42.43L809,198.72l-61.22,40.66,42.14,28.95a65.31,65.31,0,0,0,17.42,29.54,76.78,76.78,0,0,0,29.74,17.92L829.45,349ZM787.8,249.58,772.85,239.5l18.69-11.35A74.67,74.67,0,0,0,787.8,249.58Zm124.75,44.83c-13.45,6.77-27.75,9.92-45.73,10.13a81.93,81.93,0,0,1-11.35-.72c-27.65-3.53-47.5-21.15-51.49-43.26a43.83,43.83,0,0,1-.8-8.12c-.1-17.88,6.77-32.26,17.87-42.22a55.12,55.12,0,0,1,10.67-7.52,69.36,69.36,0,0,1,32.84-8.18c27.19-.31,48.07,12.75,58.07,33l-61,41c3.18,1.39,8.67,1.73,12.8,1.69,12.34-.17,20.31-4.88,27.62-10.32L917.57,282l4.72,6.73A107,107,0,0,1,912.55,294.41ZM1000.73,388l5.52-73.18-24,35.56-11.45-53.95-.25-.06L948.65,350.8l-36.19-15.19L925,305.3c1.72-1,3.43-2,5.13-3.13l15.1-9.78L935.77,279l29.81-72.17,38,8.7-2.38,54.15,24.46-57.78,27.2,6.23-5.52,76c-18.11,13.07-30.12,33.47-29.93,54.69a54.93,54.93,0,0,0,18.91,41.69c1.22,1,2.5,2,3.84,3l-.74,9.84L1000.73,388Zm99.2-1.53a60.39,60.39,0,0,1-15.31,4.16A52.18,52.18,0,0,1,1056,387a42.84,42.84,0,0,1-14.64-10.62,41.56,41.56,0,0,1-10.16-27.28c-.08-12.85,5.54-25.26,14.72-35.16a67.47,67.47,0,0,1,15.93-12.49,63.76,63.76,0,0,1,21.8-7.4c18-2.39,33.94,3.5,43.58,14.44a40.12,40.12,0,0,1,8,13.7,41.56,41.56,0,0,1,2.07,12.7c.18,15.46-7.62,30.17-19.75,40.69A65.45,65.45,0,0,1,1099.93,386.46Zm69.6,86.11-26-14.69,21.1-103.31-32.17,76.06-29.29-11.82,7.4-22.32c23.7-12.23,40.28-36.29,40-61.59a54.13,54.13,0,0,0-9.53-30.49l8.73-26.33-10.8-5.69,4.06-14.2,50,22.53-1.51,87.56,35.21-70.75,37.84,17.93-95,157.11Z" transform="translate(-50.55 -27.24)" fill="url(#u)"/><path d="M1190.2,487.55l1.78-7.76-2.9-.66.24-1,7,1.6-.24,1-2.91-.66-1.77,7.76Z" transform="translate(-50.55 -27.24)"/><path d="M1195.44,488.75l2-8.8,1.76.4.65,6.71c.06.62.1,1.09.12,1.4l.79-1.31,3.51-5.63,1.57.36-2,8.79-1.12-.26,1.69-7.36-4.24,6.78-1.05-.24-.83-8.07-1.72,7.49Z" transform="translate(-50.55 -27.24)"/></g></g></svg>