<svg xmlns="http://www.w3.org/2000/svg" xmlns:xlink="http://www.w3.org/1999/xlink" viewBox="0 0 220.67 249.17"><defs><linearGradient id="a" x1="-4.32" y1="185.16" x2="202.97" y2="75.64" gradientUnits="userSpaceOnUse"><stop offset="0" stop-color="#fc0048"/><stop offset="0.54" stop-color="#ff4e00"/><stop offset="1" stop-color="#e100ed"/></linearGradient></defs><path d="M78.32,188.9v9.16l8,4.6V156.88l8,4.61v54.94l-8-4.61-8-4.61-8-4.6V120.19l8,4.61V134l8,4.61,8,4.6v9.16l-8-4.61-8-4.6V188.9ZM46.4,115.53v-9.16l-8-4.6-8-4.61-8-4.61V175l8,4.61V106.32l8,4.6Zm8,4.61v64.1l-8-4.61V124.69l-8-4.61v64.1l8,4.61,8,4.6,8,4.61V115.59l-8-4.61Z" fill="#fff"/><path d="M101.22,2.44,9.11,55.62A18.23,18.23,0,0,0,0,71.41V177.76a18.24,18.24,0,0,0,9.11,15.79l92.11,53.18a18.26,18.26,0,0,0,18.23,0l92.1-53.18a18.25,18.25,0,0,0,9.12-15.79V71.41a18.24,18.24,0,0,0-9.12-15.79L119.45,2.44A18.26,18.26,0,0,0,101.22,2.44Zm2.7,231-91.1-52.6V75.69l91.1,52.6Z" fill="url(#a)"/></svg>