<svg xmlns="http://www.w3.org/2000/svg" viewBox="0 0 122 20" width="100" style="margin:auto">
  <g>
    <path id="wave" fill="#3c5aa6"
      d="M243.25,0V8.1a10.18,10.18,0,0,0-7.27,3,18.28,18.28,0,0,1-13,5.38,18.31,18.31,0,0,1-13-5.38,10.25,10.25,0,0,0-14.53,0,18.28,18.28,0,0,1-13,5.38,18.29,18.29,0,0,1-13-5.38,10.25,10.25,0,0,0-14.53,0,18.29,18.29,0,0,1-13,5.38,18.28,18.28,0,0,1-13-5.38,10.25,10.25,0,0,0-14.53,0,18.29,18.29,0,0,1-13,5.38,18.28,18.28,0,0,1-13-5.38,10.26,10.26,0,0,0-14.54,0,18.25,18.25,0,0,1-13,5.38,18.28,18.28,0,0,1-13-5.38,10.26,10.26,0,0,0-14.54,0,18.27,18.27,0,0,1-13,5.38,18.27,18.27,0,0,1-13-5.38A10.18,10.18,0,0,0,0,8.1V0A18.27,18.27,0,0,1,13,5.38a10.25,10.25,0,0,0,7.27,3,10.21,10.21,0,0,0,7.27-3,18.4,18.4,0,0,1,26,0,10.25,10.25,0,0,0,7.27,3,10.21,10.21,0,0,0,7.27-3,18.41,18.41,0,0,1,26,0,10.2,10.2,0,0,0,7.26,3,10.21,10.21,0,0,0,7.27-3,18.41,18.41,0,0,1,26,0,10.2,10.2,0,0,0,7.26,3,10.21,10.21,0,0,0,7.27-3,18.41,18.41,0,0,1,26,0,10.21,10.21,0,0,0,7.27,3,10.2,10.2,0,0,0,7.26-3,18.41,18.41,0,0,1,26,0,10.21,10.21,0,0,0,7.27,3,10.2,10.2,0,0,0,7.26-3A18.31,18.31,0,0,1,243.25,0Z">
      <animateTransform attributeName="transform" type="translate" from="-122" to="0" dur="1.2s"
        repeatCount="indefinite" />
    </path>
  </g>
</svg>